<svg xmlns="http://www.w3.org/2000/svg" width="768" height="768" viewBox="0 0 768 768" version="1.1"><path d="M 491.349 52.924 C 481.665 55.545, 474.748 58.555, 467 63.519 C 446.205 76.843, 432.784 98.428, 433.126 118 L 433.222 123.500 434.590 117.500 C 435.342 114.200, 436.697 109.025, 437.600 106 C 446.528 76.105, 477.189 53.678, 508.888 53.857 C 520.515 53.923, 527.782 55.689, 538.970 61.167 C 546.401 64.806, 549.156 67.011, 561.431 79.147 C 570.202 87.818, 575.774 92.626, 576.365 92.035 C 578.919 89.481, 556.348 65.512, 545.964 59.750 C 534.511 53.396, 528.185 51.813, 512.500 51.377 C 500.923 51.055, 497.263 51.323, 491.349 52.924 M 500.193 57.072 C 481.315 59.523, 465.107 68.183, 453.334 82.107 C 444.065 93.069, 439.057 106.588, 439.017 120.750 L 439 127 422.250 127.138 C 413.038 127.214, 383.450 127.577, 356.500 127.945 L 307.500 128.613 379.191 128.807 C 425.696 128.932, 451.099 129.351, 451.500 130 C 451.891 130.633, 449.344 131, 444.559 131 C 440.268 131, 437 131.425, 437 131.984 C 437 135.049, 442.502 158.286, 444.665 164.354 C 448.839 176.065, 452.752 181.904, 464.362 193.750 L 475.389 205 466.163 205 C 458.257 205, 456.857 204.750, 456.377 203.250 C 454.628 197.791, 448.630 187.014, 445.639 183.955 C 437.547 175.684, 425.297 171.629, 408.500 171.660 C 389.869 171.695, 373.702 177.709, 361.804 189.030 L 355.874 194.673 353.966 190.933 C 348.468 180.157, 331.420 175.230, 319.535 180.983 C 315.766 182.808, 307.029 191.204, 307.006 193.024 C 306.993 194.139, 320.213 200.182, 327.665 202.466 L 335.500 204.868 325.311 204.934 L 315.122 205 310.445 200.952 C 307.872 198.726, 304.205 195.164, 302.296 193.037 C 297.279 187.448, 294.467 186.539, 286.490 187.928 C 282.875 188.558, 276.735 190.221, 272.846 191.624 C 268.956 193.027, 265.410 193.798, 264.965 193.337 C 264.076 192.418, 250 151.400, 250 149.728 C 250 149.015, 278.951 148.866, 342.632 149.251 C 418.668 149.710, 435.418 150.052, 436.117 151.155 C 437.310 153.038, 437.252 150.794, 436.025 147.565 L 435.050 145 364.775 144.998 C 326.124 144.996, 284.797 144.702, 272.939 144.344 L 251.377 143.693 249.863 137.882 L 248.349 132.070 252.780 131.406 C 255.218 131.040, 267.852 130.423, 280.856 130.033 L 304.500 129.326 274.789 129.163 L 245.077 129 243.980 124.925 C 242.120 118.017, 233.059 93.877, 230.853 89.952 C 226.765 82.679, 217.547 79.984, 197 80.054 C 181.534 80.107, 151.841 82.430, 149.436 83.776 C 147.619 84.793, 147.673 84.925, 150.315 85.930 C 151.863 86.518, 154.338 87.010, 155.815 87.022 C 157.292 87.034, 162.527 87.934, 167.449 89.022 C 172.371 90.110, 177.836 91, 179.592 91 C 183.461 91, 183.432 90.932, 185.954 105.786 C 192.117 142.091, 196.621 186.919, 197.980 225.500 C 199.907 280.215, 201.148 383.671, 201.711 536.729 C 202.191 666.913, 202.067 690.017, 200.888 690.358 C 200.124 690.578, 187.800 692.210, 173.500 693.984 C 142.548 697.824, 133.084 699.486, 126.798 702.186 C 119.620 705.268, 116.682 711.617, 120.750 715.255 C 129.520 723.100, 212.816 730.809, 324.500 734.111 C 366.799 735.362, 460.991 734.760, 494 733.028 C 527.487 731.271, 587.880 727.045, 602.203 725.457 C 632.632 722.083, 653.785 717.140, 656.071 712.868 C 658.376 708.561, 654.802 702.384, 648.658 700.056 C 640.615 697.009, 616.257 693.873, 584.636 691.813 L 565.773 690.584 566.308 471.542 C 566.807 267.301, 567.728 191.331, 569.892 175.798 C 570.375 172.334, 570.630 169.346, 570.460 169.158 C 570.289 168.970, 569.007 170.545, 567.611 172.658 C 564.469 177.412, 558.677 202.591, 557.066 218.500 C 556.061 228.425, 549.916 267.117, 537.453 342 C 532.122 374.031, 519.843 438.588, 517.641 446.162 C 514.916 455.536, 512.992 457.662, 497.435 468.500 C 493.730 471.081, 488.413 476.615, 482.450 484.098 C 477.367 490.476, 471.097 497.426, 468.515 499.541 C 465.934 501.656, 452.286 509.262, 438.185 516.443 C 409.389 531.109, 409.627 530.908, 404.033 545.192 C 398.808 558.531, 397.595 568.308, 397.545 597.500 C 397.493 627.398, 398.461 633.843, 405.083 647.690 C 408.027 653.847, 410.241 656.927, 414 660.097 C 417.151 662.754, 419 665.111, 419 666.469 C 419 668.821, 415.858 672.033, 409.250 676.439 C 404.959 679.299, 403.923 680.351, 406.289 679.443 C 406.998 679.170, 409.803 680.422, 412.522 682.224 L 417.465 685.500 439.867 685.835 C 462.947 686.180, 469.728 685.450, 473.284 682.239 C 474.882 680.797, 476.612 680.750, 489.784 681.792 C 506.195 683.090, 531.480 687.164, 535.731 689.196 C 538.327 690.437, 538.518 690.968, 538.792 697.679 C 539.044 703.843, 538.835 704.914, 537.292 705.382 C 536.306 705.681, 528.975 706.386, 521 706.949 C 463.994 710.970, 373.884 711.467, 297.500 708.181 C 249.395 706.112, 238.248 705.416, 235.343 704.301 C 233.900 703.748, 233.642 699.802, 234.650 693.699 C 235.167 690.571, 235.957 689.552, 239.118 687.940 C 246.301 684.275, 258.426 682.404, 287.500 680.471 C 300.277 679.621, 326.508 676.176, 332.957 674.500 C 339.820 672.716, 340.724 673.282, 334.315 675.350 C 325.107 678.321, 316.614 680.146, 305.755 681.487 C 299.746 682.229, 294.569 683.098, 294.249 683.418 C 292.534 685.132, 297.673 685.500, 323.333 685.500 L 351.500 685.500 358 682.109 C 363.737 679.116, 364.282 678.588, 362.640 677.609 C 361.616 676.999, 359.065 675.286, 356.970 673.802 C 352.252 670.460, 352.442 669.366, 359.546 658.933 C 368.103 646.365, 371.259 635.443, 372.528 614 C 373.282 601.251, 371.726 576.051, 369.441 564.002 C 366.561 548.820, 360.316 534.126, 354.754 529.446 C 353.193 528.133, 342.822 522.490, 331.708 516.906 C 305.044 503.511, 299.604 499.823, 290.780 489.151 C 279.546 475.568, 276.167 472.287, 265.777 464.880 C 252.939 455.727, 252.090 454.164, 247.643 431.500 C 245.700 421.600, 241.857 402.475, 239.103 389 C 236.348 375.525, 232.255 352.125, 230.008 337 C 227.761 321.875, 223.933 296.900, 221.501 281.500 C 216.301 248.571, 213.294 225.362, 208.480 181 C 206.540 163.125, 204.670 146.519, 204.324 144.097 C 203.426 137.809, 205.581 139.614, 206.915 146.267 C 207.492 149.145, 209.354 165.225, 211.054 182 C 213.548 206.612, 216.263 224.828, 225.117 276.361 C 231.152 311.485, 236.934 343.885, 237.966 348.361 C 238.997 352.837, 243.311 372.319, 247.552 391.653 C 251.793 410.988, 255.653 427.413, 256.131 428.153 C 257.284 429.940, 258.517 428.117, 260.442 421.777 C 261.815 417.255, 261.690 416.168, 257.523 396.325 C 253.512 377.229, 253.300 375.500, 254.834 374.369 C 255.751 373.693, 264.600 369.192, 274.500 364.366 C 284.400 359.540, 311.400 346.055, 334.500 334.400 C 406.119 298.263, 435.520 285.927, 464 280.063 C 469.225 278.988, 485.650 276.022, 500.500 273.472 C 541.180 266.489, 537.043 266.957, 536.470 269.402 C 531.330 291.324, 527.913 306.812, 527.094 311.894 C 525.918 319.202, 525.722 319.399, 514 325.098 C 473.913 344.588, 448.847 352.519, 419.500 354.997 C 395.685 357.008, 382.304 360.352, 369.166 367.573 C 355.323 375.182, 340.866 388.936, 331.577 403.335 C 326.807 410.728, 305 454.651, 305 456.865 C 305 458.026, 307.480 459, 310.435 459 C 312.401 459, 313.076 457.862, 315.461 450.533 C 316.975 445.876, 321.122 436.088, 324.676 428.783 C 343.034 391.040, 364.720 370.872, 395.374 363.032 C 399.411 362, 410.766 360.193, 420.607 359.018 C 454.484 354.973, 475.648 348.693, 505.110 333.945 C 515.068 328.960, 523.420 325.087, 523.671 325.337 C 523.921 325.588, 520.290 335.402, 515.600 347.147 C 510.911 358.891, 506.777 370.404, 506.412 372.731 C 506.048 375.058, 505.110 377.494, 504.328 378.143 C 503.471 378.854, 503.297 379.566, 503.892 379.933 C 504.764 380.472, 496.763 387.262, 480.250 399.997 C 477.363 402.224, 475 404.649, 475 405.385 C 475 406.122, 481.413 410.849, 489.250 415.890 C 497.087 420.931, 504.956 426.221, 506.736 427.645 C 509.164 429.588, 510.088 429.893, 510.436 428.868 C 510.691 428.115, 514.951 407.475, 519.902 383 C 531.658 324.886, 535.022 309.069, 540.926 284.163 C 549.082 249.760, 554.962 218.296, 554.989 208.905 L 555 205.311 540.489 204.651 C 528.867 204.123, 525.250 203.602, 522.321 202.032 C 520.310 200.954, 516.602 199.774, 514.082 199.410 C 511.562 199.046, 508.942 198.303, 508.261 197.761 C 506.123 196.057, 499.890 197.953, 496.600 201.308 C 492.836 205.146, 490.404 206.514, 485.812 207.375 C 481.202 208.240, 477.993 205.730, 474.449 198.485 C 470.978 191.390, 471.599 187.464, 477.047 182.071 C 479.221 179.918, 481 177.473, 481 176.638 C 481 175.803, 483.162 172.280, 485.805 168.810 C 488.448 165.339, 493.890 157.888, 497.899 152.251 C 501.907 146.615, 505.638 141.724, 506.189 141.383 C 506.741 141.042, 507.936 141.509, 508.846 142.420 C 510.987 144.565, 510.876 155.492, 508.565 170.236 C 507.380 177.787, 507.178 181.800, 507.861 184.170 L 508.820 187.500 508.917 183 C 509.061 176.366, 510.838 166.419, 513.052 159.847 C 514.123 156.666, 515 152.731, 515 151.103 C 515 149.475, 515.599 147.544, 516.330 146.812 C 517.062 146.081, 517.468 144.904, 517.233 144.198 C 516.997 143.492, 517.076 141.834, 517.407 140.513 L 518.010 138.111 523.755 140.117 C 534.089 143.726, 553.361 149.001, 555.958 148.932 C 558.281 148.870, 558.327 148.789, 556.500 147.991 C 555.400 147.510, 548.450 145.507, 541.056 143.538 C 528.468 140.187, 522.918 137.602, 524.726 135.934 C 525.759 134.981, 543.334 133, 550.754 133 C 554.006 133, 556.976 132.691, 557.354 132.313 C 557.732 131.935, 555.895 130.810, 553.271 129.813 C 547.555 127.643, 546.906 127.590, 547.583 129.356 C 548.286 131.188, 522.364 132.774, 520.623 131.005 C 519.790 130.160, 520.001 129.495, 521.441 128.433 C 524.080 126.485, 525 126.632, 525 129 C 525 131.627, 528.587 131.686, 529.271 129.070 C 529.549 128.009, 529.467 125.646, 529.089 123.820 C 528.478 120.868, 529.214 119.224, 535.714 109 C 539.735 102.675, 543.922 96.375, 545.017 95 L 547.009 92.500 550.255 96.075 C 552.040 98.041, 554.302 101.139, 555.281 102.960 C 556.261 104.781, 557.324 106.010, 557.643 105.691 C 557.962 105.372, 555.834 101.216, 552.915 96.455 L 547.607 87.799 550.303 83.002 C 551.787 80.364, 553 77.725, 553 77.137 C 553 75.447, 547.078 69.149, 542.595 66.073 C 536.753 62.064, 525.425 58.241, 515.817 57.036 C 511.272 56.466, 507.316 56.057, 507.026 56.127 C 506.737 56.197, 503.662 56.622, 500.193 57.072 M 487.500 81.502 C 485.300 82.280, 482.262 84.292, 480.750 85.974 C 476.237 90.992, 476.944 93.507, 485.850 104.134 C 493.839 113.666, 505.374 125.059, 508.998 126.999 C 511.191 128.172, 511.372 127.217, 511.174 115.500 L 511.089 110.500 512.577 117 C 513.396 120.575, 513.818 124.513, 513.514 125.750 C 512.736 128.920, 514.021 128.572, 519.654 124.086 C 525.649 119.313, 532.603 110.611, 537.408 101.868 C 544.077 89.736, 542.054 86.342, 525.749 82.307 C 519.958 80.874, 514.488 79.982, 513.595 80.325 C 508.242 82.379, 510.100 93.527, 518.129 107.528 C 522.812 115.696, 523.734 119.684, 520.275 116.813 C 517.141 114.212, 513.790 107.580, 510.533 97.531 C 508.695 91.861, 506.467 86.116, 505.582 84.765 C 502.461 80.003, 495.364 78.722, 487.500 81.502 M 197 85.779 C 197 88.504, 205.108 117.389, 211.518 137.500 C 214.499 146.850, 220.109 164.617, 223.987 176.982 L 231.037 199.464 228.768 201.215 C 227.521 202.179, 225.713 203.230, 224.750 203.551 C 223.787 203.872, 223 204.682, 223 205.350 C 223 206.278, 224.618 206.342, 229.826 205.622 L 236.651 204.679 234.890 199.589 C 233.922 196.790, 230.400 185.933, 227.065 175.461 C 223.729 164.990, 220.100 154.657, 219 152.500 C 217.900 150.342, 217 147.808, 217 146.867 C 217 144.580, 204.618 96.971, 202.211 90 C 200.303 84.476, 197 81.800, 197 85.779 M 602.518 97.248 C 601.613 102.382, 598 129.223, 598 130.814 C 598 132.719, 603.074 131.735, 607.565 128.960 C 614.038 124.959, 617.800 112.894, 614.936 105.315 C 613.633 101.865, 609.425 97.305, 605.796 95.409 C 603.150 94.027, 603.079 94.067, 602.518 97.248 M 468.502 98.575 C 466.853 99.435, 464.668 100.895, 463.646 101.819 C 457.847 107.063, 455.995 119.558, 460.279 124.538 C 462.416 127.022, 463.702 127.335, 481.029 129.576 C 500.754 132.127, 512.569 132.604, 515 130.948 C 516.085 130.208, 515.480 130.102, 512.810 130.563 C 509.132 131.198, 509.068 131.148, 493.310 115.238 C 478.886 100.675, 474.640 96.989, 472.316 97.006 C 471.867 97.010, 470.151 97.716, 468.502 98.575 M 458.585 131.324 C 456.123 133.786, 456.091 133.986, 457.457 138.523 C 458.932 143.425, 461.486 147, 463.512 147 C 467.630 147, 501 135.499, 501 134.080 C 501 133.691, 493.913 132.596, 485.250 131.646 C 476.587 130.697, 467.614 129.665, 465.309 129.355 C 461.738 128.874, 460.744 129.165, 458.585 131.324 M 498 139.110 C 496.075 139.622, 489.213 141.685, 482.750 143.696 C 471.239 147.277, 471.029 147.395, 472.410 149.503 C 473.826 151.665, 477.025 161.435, 476.971 163.432 C 476.955 164.019, 475.340 160.900, 473.382 156.500 C 471.424 152.100, 469.669 148.345, 469.483 148.155 C 469.296 147.965, 467.764 148.113, 466.078 148.483 C 463.281 149.097, 463.118 149.346, 464.211 151.328 C 464.871 152.523, 465.276 154.368, 465.112 155.428 C 464.311 160.610, 466.223 168.184, 469.182 171.555 C 473.746 176.753, 477.601 176.390, 483.031 170.250 C 487.967 164.668, 499.994 147.895, 502.355 143.300 C 505.185 137.793, 504.703 137.329, 498 139.110 M 595.219 143.206 C 590.905 144.654, 586.270 150.044, 585.414 154.609 C 584.514 159.404, 587.777 166.284, 592.242 169.006 C 598.634 172.903, 608.604 170.438, 612.341 164.036 C 615.969 157.822, 614.065 148.054, 608.517 144.419 C 605.366 142.355, 599.383 141.809, 595.219 143.206 M 576.734 154.388 C 576.985 155.701, 576.632 157.839, 575.950 159.138 C 574.716 161.486, 574.721 161.489, 576.829 159.618 C 579.633 157.129, 580.581 153.983, 578.857 152.890 C 576.696 151.521, 576.246 151.838, 576.734 154.388 M 304 203.893 C 304 204.913, 306.427 206, 308.704 206 C 309.960 206, 310.015 205.723, 309 204.500 C 307.654 202.878, 304 202.434, 304 203.893 M 353 210.526 C 353 216.369, 362.563 227.180, 372.168 232.194 C 378.162 235.323, 379.061 235.500, 389 235.500 C 400.527 235.500, 404.229 234.250, 411.432 227.925 C 415.518 224.338, 420.303 215.166, 419.830 211.827 L 419.500 209.500 386.250 209.237 C 356.741 209.003, 353 209.148, 353 210.526 M 237 211.601 C 237 212.274, 242.763 232.219, 243.550 234.269 C 243.886 235.146, 240.885 237.031, 234.527 239.936 C 227.873 242.976, 225 244.807, 225 246.008 C 225 252.155, 244.232 345.549, 245.841 347.216 C 247.678 349.119, 264.170 343.437, 280.439 335.296 C 293.926 328.547, 318 312.399, 318 310.101 C 318 309.670, 315.612 308.784, 312.694 308.131 C 306.398 306.722, 296.789 302.318, 290.224 297.833 C 271.064 284.743, 254.168 258.574, 243.513 225.486 C 240.947 217.519, 238.432 211, 237.924 211 C 237.416 211, 237 211.270, 237 211.601 M 451.892 213.202 C 451.014 214.843, 451.005 215.502, 451.857 215.786 C 452.485 215.995, 453.014 217.367, 453.032 218.833 C 453.059 221.091, 453.252 221.270, 454.293 220 C 455.699 218.286, 460.326 214.948, 464 212.999 C 466.289 211.784, 466.384 211.813, 465.128 213.336 C 463.170 215.709, 465.325 215.404, 467.500 213 C 469.296 211.016, 469.247 211, 461.190 211 C 453.845 211, 452.958 211.210, 451.892 213.202 M 446.226 223.882 C 443.875 227.522, 441.175 231.619, 440.226 232.986 C 438.958 234.813, 439.760 234.425, 443.250 231.524 C 445.863 229.353, 448 226.786, 448 225.820 C 448 224.691, 448.522 224.263, 449.458 224.622 C 451.211 225.295, 452.613 220.887, 451.340 218.705 C 450.712 217.628, 449.422 218.934, 446.226 223.882 M 472.561 413.105 C 471.707 415.981, 469.835 423.771, 468.401 430.417 C 466.967 437.063, 464.801 447.083, 463.587 452.683 L 461.381 462.867 463.440 461.811 C 467.474 459.744, 509.972 432.491, 509.927 432 C 509.890 431.590, 487.832 416.670, 476.941 409.688 L 474.114 407.876 472.561 413.105 M 345.021 438.062 C 339.108 440.550, 335.792 445.975, 335.847 453.072 C 335.914 461.682, 341.404 468.338, 349.432 469.542 C 353.149 470.099, 354.703 469.750, 359.177 467.353 C 370.942 461.048, 372.180 447.450, 361.702 439.627 C 358.609 437.318, 348.944 436.411, 345.021 438.062 M 354.952 473.253 C 342.812 481.435, 346.641 497.657, 361.175 499.620 C 367.026 500.410, 374.304 497.247, 376.527 492.947 C 379.518 487.163, 377.653 478.363, 372.405 473.499 C 368.696 470.063, 359.871 469.938, 354.952 473.253 M 364.783 532.185 C 375.703 537.380, 377.024 539.041, 377.462 548.121 C 377.657 552.179, 378.281 559.775, 378.848 565 C 379.415 570.225, 380.195 591.600, 380.579 612.500 C 380.964 633.400, 381.655 651.513, 382.115 652.750 C 383.042 655.246, 387.304 655.894, 388.691 653.750 C 389.136 653.063, 389.579 631.800, 389.676 606.500 C 389.773 581.200, 389.863 558.522, 389.877 556.104 C 389.890 553.686, 389.236 550.424, 388.424 548.854 C 385.588 543.369, 389.972 538.712, 404.319 531.968 L 412.407 528.166 384.722 528.333 L 357.037 528.500 364.783 532.185 M 379.849 659.388 C 377.290 660.077, 374.058 661.387, 372.665 662.300 C 368.660 664.924, 364.814 670.647, 364.650 674.225 L 364.500 677.500 374.500 678.051 C 384.743 678.614, 401.105 676.980, 406.250 674.880 C 415.133 671.254, 400.173 657.790, 387.568 658.067 C 385.881 658.105, 382.407 658.699, 379.849 659.388 M 466 686.976 C 462.975 687.430, 447.900 687.900, 432.500 688.019 C 417.100 688.139, 403.150 688.618, 401.500 689.084 C 399.521 689.644, 401.394 689.776, 407 689.472 C 411.675 689.219, 436.425 688.996, 462 688.976 C 496.878 688.948, 508.017 688.659, 506.566 687.817 C 504.188 686.437, 473.784 685.807, 466 686.976 M 369.500 689 L 349.500 689.564 373.750 689.782 C 389.395 689.923, 398 689.645, 398 689 C 398 688.450, 396.087 688.098, 393.750 688.218 C 391.413 688.338, 380.500 688.690, 369.500 689 M 252.500 695.051 C 262.439 696.189, 330.002 698.707, 330.001 697.940 C 330 697.454, 295.221 695.845, 256.500 694.540 C 245.154 694.157, 244.936 694.185, 252.500 695.051" stroke="none" fill="#f3f0e8" fill-rule="evenodd"/><path d="M -0 384.001 L -0 768.003 384.250 767.751 L 768.500 767.500 768.751 383.750 L 769.003 0 384.501 0 L 0 0 -0 384.001 M 0.495 384.500 C 0.495 595.700, 0.610 681.951, 0.750 576.169 C 0.890 470.386, 0.890 297.586, 0.750 192.169 C 0.610 86.751, 0.495 173.300, 0.495 384.500 M 491.349 52.924 C 481.665 55.545, 474.748 58.555, 467 63.519 C 446.205 76.843, 432.784 98.428, 433.126 118 L 433.222 123.500 434.590 117.500 C 435.342 114.200, 436.697 109.025, 437.600 106 C 446.528 76.105, 477.189 53.678, 508.888 53.857 C 520.515 53.923, 527.782 55.689, 538.970 61.167 C 546.401 64.806, 549.156 67.011, 561.431 79.147 C 570.202 87.818, 575.774 92.626, 576.365 92.035 C 578.919 89.481, 556.348 65.512, 545.964 59.750 C 534.511 53.396, 528.185 51.813, 512.500 51.377 C 500.923 51.055, 497.263 51.323, 491.349 52.924 M 500.193 57.072 C 481.315 59.523, 465.107 68.183, 453.334 82.107 C 444.065 93.069, 439.057 106.588, 439.017 120.750 L 439 127 422.250 127.138 C 413.038 127.214, 383.450 127.577, 356.500 127.945 L 307.500 128.613 379.191 128.807 C 425.696 128.932, 451.099 129.351, 451.500 130 C 451.891 130.633, 449.344 131, 444.559 131 C 440.268 131, 437 131.425, 437 131.984 C 437 135.049, 442.502 158.286, 444.665 164.354 C 448.839 176.065, 452.752 181.904, 464.362 193.750 L 475.389 205 466.163 205 C 458.257 205, 456.857 204.750, 456.377 203.250 C 454.628 197.791, 448.630 187.014, 445.639 183.955 C 437.547 175.684, 425.297 171.629, 408.500 171.660 C 389.869 171.695, 373.702 177.709, 361.804 189.030 L 355.874 194.673 353.966 190.933 C 348.468 180.157, 331.420 175.230, 319.535 180.983 C 315.766 182.808, 307.029 191.204, 307.006 193.024 C 306.993 194.139, 320.213 200.182, 327.665 202.466 L 335.500 204.868 325.311 204.934 L 315.122 205 310.445 200.952 C 307.872 198.726, 304.205 195.164, 302.296 193.037 C 297.279 187.448, 294.467 186.539, 286.490 187.928 C 282.875 188.558, 276.735 190.221, 272.846 191.624 C 268.956 193.027, 265.410 193.798, 264.965 193.337 C 264.076 192.418, 250 151.400, 250 149.728 C 250 149.015, 278.951 148.866, 342.632 149.251 C 418.668 149.710, 435.418 150.052, 436.117 151.155 C 437.310 153.038, 437.252 150.794, 436.025 147.565 L 435.050 145 364.775 144.998 C 326.124 144.996, 284.797 144.702, 272.939 144.344 L 251.377 143.693 249.863 137.882 L 248.349 132.070 252.780 131.406 C 255.218 131.040, 267.852 130.423, 280.856 130.033 L 304.500 129.326 274.789 129.163 L 245.077 129 243.980 124.925 C 242.120 118.017, 233.059 93.877, 230.853 89.952 C 226.765 82.679, 217.547 79.984, 197 80.054 C 181.534 80.107, 151.841 82.430, 149.436 83.776 C 147.619 84.793, 147.673 84.925, 150.315 85.930 C 151.863 86.518, 154.338 87.010, 155.815 87.022 C 157.292 87.034, 162.527 87.934, 167.449 89.022 C 172.371 90.110, 177.836 91, 179.592 91 C 183.461 91, 183.432 90.932, 185.954 105.786 C 192.117 142.091, 196.621 186.919, 197.980 225.500 C 199.907 280.215, 201.148 383.671, 201.711 536.729 C 202.191 666.913, 202.067 690.017, 200.888 690.358 C 200.124 690.578, 187.800 692.210, 173.500 693.984 C 142.548 697.824, 133.084 699.486, 126.798 702.186 C 119.620 705.268, 116.682 711.617, 120.750 715.255 C 129.520 723.100, 212.816 730.809, 324.500 734.111 C 366.799 735.362, 460.991 734.760, 494 733.028 C 527.487 731.271, 587.880 727.045, 602.203 725.457 C 632.632 722.083, 653.785 717.140, 656.071 712.868 C 658.376 708.561, 654.802 702.384, 648.658 700.056 C 640.615 697.009, 616.257 693.873, 584.636 691.813 L 565.773 690.584 566.308 471.542 C 566.807 267.301, 567.728 191.331, 569.892 175.798 C 570.375 172.334, 570.630 169.346, 570.460 169.158 C 570.289 168.970, 569.007 170.545, 567.611 172.658 C 564.469 177.412, 558.677 202.591, 557.066 218.500 C 556.061 228.425, 549.916 267.117, 537.453 342 C 532.122 374.031, 519.843 438.588, 517.641 446.162 C 514.916 455.536, 512.992 457.662, 497.435 468.500 C 493.730 471.081, 488.413 476.615, 482.450 484.098 C 477.367 490.476, 471.097 497.426, 468.515 499.541 C 465.934 501.656, 452.286 509.262, 438.185 516.443 C 409.389 531.109, 409.627 530.908, 404.033 545.192 C 398.808 558.531, 397.595 568.308, 397.545 597.500 C 397.493 627.398, 398.461 633.843, 405.083 647.690 C 408.027 653.847, 410.241 656.927, 414 660.097 C 417.151 662.754, 419 665.111, 419 666.469 C 419 668.821, 415.858 672.033, 409.250 676.439 C 404.959 679.299, 403.923 680.351, 406.289 679.443 C 406.998 679.170, 409.803 680.422, 412.522 682.224 L 417.465 685.500 439.867 685.835 C 462.947 686.180, 469.728 685.450, 473.284 682.239 C 474.882 680.797, 476.612 680.750, 489.784 681.792 C 506.195 683.090, 531.480 687.164, 535.731 689.196 C 538.327 690.437, 538.518 690.968, 538.792 697.679 C 539.044 703.843, 538.835 704.914, 537.292 705.382 C 536.306 705.681, 528.975 706.386, 521 706.949 C 463.994 710.970, 373.884 711.467, 297.500 708.181 C 249.395 706.112, 238.248 705.416, 235.343 704.301 C 233.900 703.748, 233.642 699.802, 234.650 693.699 C 235.167 690.571, 235.957 689.552, 239.118 687.940 C 246.301 684.275, 258.426 682.404, 287.500 680.471 C 300.277 679.621, 326.508 676.176, 332.957 674.500 C 339.820 672.716, 340.724 673.282, 334.315 675.350 C 325.107 678.321, 316.614 680.146, 305.755 681.487 C 299.746 682.229, 294.569 683.098, 294.249 683.418 C 292.534 685.132, 297.673 685.500, 323.333 685.500 L 351.500 685.500 358 682.109 C 363.737 679.116, 364.282 678.588, 362.640 677.609 C 361.616 676.999, 359.065 675.286, 356.970 673.802 C 352.252 670.460, 352.442 669.366, 359.546 658.933 C 368.103 646.365, 371.259 635.443, 372.528 614 C 373.282 601.251, 371.726 576.051, 369.441 564.002 C 366.561 548.820, 360.316 534.126, 354.754 529.446 C 353.193 528.133, 342.822 522.490, 331.708 516.906 C 305.044 503.511, 299.604 499.823, 290.780 489.151 C 279.546 475.568, 276.167 472.287, 265.777 464.880 C 252.939 455.727, 252.090 454.164, 247.643 431.500 C 245.700 421.600, 241.857 402.475, 239.103 389 C 236.348 375.525, 232.255 352.125, 230.008 337 C 227.761 321.875, 223.933 296.900, 221.501 281.500 C 216.301 248.571, 213.294 225.362, 208.480 181 C 206.540 163.125, 204.670 146.519, 204.324 144.097 C 203.426 137.809, 205.581 139.614, 206.915 146.267 C 207.492 149.145, 209.354 165.225, 211.054 182 C 213.548 206.612, 216.263 224.828, 225.117 276.361 C 231.152 311.485, 236.934 343.885, 237.966 348.361 C 238.997 352.837, 243.311 372.319, 247.552 391.653 C 251.793 410.988, 255.653 427.413, 256.131 428.153 C 257.284 429.940, 258.517 428.117, 260.442 421.777 C 261.815 417.255, 261.690 416.168, 257.523 396.325 C 253.512 377.229, 253.300 375.500, 254.834 374.369 C 255.751 373.693, 264.600 369.192, 274.500 364.366 C 284.400 359.540, 311.400 346.055, 334.500 334.400 C 406.119 298.263, 435.520 285.927, 464 280.063 C 469.225 278.988, 485.650 276.022, 500.500 273.472 C 541.180 266.489, 537.043 266.957, 536.470 269.402 C 531.330 291.324, 527.913 306.812, 527.094 311.894 C 525.918 319.202, 525.722 319.399, 514 325.098 C 473.913 344.588, 448.847 352.519, 419.500 354.997 C 395.685 357.008, 382.304 360.352, 369.166 367.573 C 355.323 375.182, 340.866 388.936, 331.577 403.335 C 326.807 410.728, 305 454.651, 305 456.865 C 305 458.026, 307.480 459, 310.435 459 C 312.401 459, 313.076 457.862, 315.461 450.533 C 316.975 445.876, 321.122 436.088, 324.676 428.783 C 343.034 391.040, 364.720 370.872, 395.374 363.032 C 399.411 362, 410.766 360.193, 420.607 359.018 C 454.484 354.973, 475.648 348.693, 505.110 333.945 C 515.068 328.960, 523.420 325.087, 523.671 325.337 C 523.921 325.588, 520.290 335.402, 515.600 347.147 C 510.911 358.891, 506.777 370.404, 506.412 372.731 C 506.048 375.058, 505.110 377.494, 504.328 378.143 C 503.471 378.854, 503.297 379.566, 503.892 379.933 C 504.764 380.472, 496.763 387.262, 480.250 399.997 C 477.363 402.224, 475 404.649, 475 405.385 C 475 406.122, 481.413 410.849, 489.250 415.890 C 497.087 420.931, 504.956 426.221, 506.736 427.645 C 509.164 429.588, 510.088 429.893, 510.436 428.868 C 510.691 428.115, 514.951 407.475, 519.902 383 C 531.658 324.886, 535.022 309.069, 540.926 284.163 C 549.082 249.760, 554.962 218.296, 554.989 208.905 L 555 205.311 540.489 204.651 C 528.867 204.123, 525.250 203.602, 522.321 202.032 C 520.310 200.954, 516.602 199.774, 514.082 199.410 C 511.562 199.046, 508.942 198.303, 508.261 197.761 C 506.123 196.057, 499.890 197.953, 496.600 201.308 C 492.836 205.146, 490.404 206.514, 485.812 207.375 C 481.202 208.240, 477.993 205.730, 474.449 198.485 C 470.978 191.390, 471.599 187.464, 477.047 182.071 C 479.221 179.918, 481 177.473, 481 176.638 C 481 175.803, 483.162 172.280, 485.805 168.810 C 488.448 165.339, 493.890 157.888, 497.899 152.251 C 501.907 146.615, 505.638 141.724, 506.189 141.383 C 506.741 141.042, 507.936 141.509, 508.846 142.420 C 510.987 144.565, 510.876 155.492, 508.565 170.236 C 507.380 177.787, 507.178 181.800, 507.861 184.170 L 508.820 187.500 508.917 183 C 509.061 176.366, 510.838 166.419, 513.052 159.847 C 514.123 156.666, 515 152.731, 515 151.103 C 515 149.475, 515.599 147.544, 516.330 146.812 C 517.062 146.081, 517.468 144.904, 517.233 144.198 C 516.997 143.492, 517.076 141.834, 517.407 140.513 L 518.010 138.111 523.755 140.117 C 534.089 143.726, 553.361 149.001, 555.958 148.932 C 558.281 148.870, 558.327 148.789, 556.500 147.991 C 555.400 147.510, 548.450 145.507, 541.056 143.538 C 528.468 140.187, 522.918 137.602, 524.726 135.934 C 525.759 134.981, 543.334 133, 550.754 133 C 554.006 133, 556.976 132.691, 557.354 132.313 C 557.732 131.935, 555.895 130.810, 553.271 129.813 C 547.555 127.643, 546.906 127.590, 547.583 129.356 C 548.286 131.188, 522.364 132.774, 520.623 131.005 C 519.790 130.160, 520.001 129.495, 521.441 128.433 C 524.080 126.485, 525 126.632, 525 129 C 525 131.627, 528.587 131.686, 529.271 129.070 C 529.549 128.009, 529.467 125.646, 529.089 123.820 C 528.478 120.868, 529.214 119.224, 535.714 109 C 539.735 102.675, 543.922 96.375, 545.017 95 L 547.009 92.500 550.255 96.075 C 552.040 98.041, 554.302 101.139, 555.281 102.960 C 556.261 104.781, 557.324 106.010, 557.643 105.691 C 557.962 105.372, 555.834 101.216, 552.915 96.455 L 547.607 87.799 550.303 83.002 C 551.787 80.364, 553 77.725, 553 77.137 C 553 75.447, 547.078 69.149, 542.595 66.073 C 536.753 62.064, 525.425 58.241, 515.817 57.036 C 511.272 56.466, 507.316 56.057, 507.026 56.127 C 506.737 56.197, 503.662 56.622, 500.193 57.072 M 487.500 81.502 C 485.300 82.280, 482.262 84.292, 480.750 85.974 C 476.237 90.992, 476.944 93.507, 485.850 104.134 C 493.839 113.666, 505.374 125.059, 508.998 126.999 C 511.191 128.172, 511.372 127.217, 511.174 115.500 L 511.089 110.500 512.577 117 C 513.396 120.575, 513.818 124.513, 513.514 125.750 C 512.736 128.920, 514.021 128.572, 519.654 124.086 C 525.649 119.313, 532.603 110.611, 537.408 101.868 C 544.077 89.736, 542.054 86.342, 525.749 82.307 C 519.958 80.874, 514.488 79.982, 513.595 80.325 C 508.242 82.379, 510.100 93.527, 518.129 107.528 C 522.812 115.696, 523.734 119.684, 520.275 116.813 C 517.141 114.212, 513.790 107.580, 510.533 97.531 C 508.695 91.861, 506.467 86.116, 505.582 84.765 C 502.461 80.003, 495.364 78.722, 487.500 81.502 M 197 85.779 C 197 88.504, 205.108 117.389, 211.518 137.500 C 214.499 146.850, 220.109 164.617, 223.987 176.982 L 231.037 199.464 228.768 201.215 C 227.521 202.179, 225.713 203.230, 224.750 203.551 C 223.787 203.872, 223 204.682, 223 205.350 C 223 206.278, 224.618 206.342, 229.826 205.622 L 236.651 204.679 234.890 199.589 C 233.922 196.790, 230.400 185.933, 227.065 175.461 C 223.729 164.990, 220.100 154.657, 219 152.500 C 217.900 150.342, 217 147.808, 217 146.867 C 217 144.580, 204.618 96.971, 202.211 90 C 200.303 84.476, 197 81.800, 197 85.779 M 602.518 97.248 C 601.613 102.382, 598 129.223, 598 130.814 C 598 132.719, 603.074 131.735, 607.565 128.960 C 614.038 124.959, 617.800 112.894, 614.936 105.315 C 613.633 101.865, 609.425 97.305, 605.796 95.409 C 603.150 94.027, 603.079 94.067, 602.518 97.248 M 468.502 98.575 C 466.853 99.435, 464.668 100.895, 463.646 101.819 C 457.847 107.063, 455.995 119.558, 460.279 124.538 C 462.416 127.022, 463.702 127.335, 481.029 129.576 C 500.754 132.127, 512.569 132.604, 515 130.948 C 516.085 130.208, 515.480 130.102, 512.810 130.563 C 509.132 131.198, 509.068 131.148, 493.310 115.238 C 478.886 100.675, 474.640 96.989, 472.316 97.006 C 471.867 97.010, 470.151 97.716, 468.502 98.575 M 458.585 131.324 C 456.123 133.786, 456.091 133.986, 457.457 138.523 C 458.932 143.425, 461.486 147, 463.512 147 C 467.630 147, 501 135.499, 501 134.080 C 501 133.691, 493.913 132.596, 485.250 131.646 C 476.587 130.697, 467.614 129.665, 465.309 129.355 C 461.738 128.874, 460.744 129.165, 458.585 131.324 M 498 139.110 C 496.075 139.622, 489.213 141.685, 482.750 143.696 C 471.239 147.277, 471.029 147.395, 472.410 149.503 C 473.826 151.665, 477.025 161.435, 476.971 163.432 C 476.955 164.019, 475.340 160.900, 473.382 156.500 C 471.424 152.100, 469.669 148.345, 469.483 148.155 C 469.296 147.965, 467.764 148.113, 466.078 148.483 C 463.281 149.097, 463.118 149.346, 464.211 151.328 C 464.871 152.523, 465.276 154.368, 465.112 155.428 C 464.311 160.610, 466.223 168.184, 469.182 171.555 C 473.746 176.753, 477.601 176.390, 483.031 170.250 C 487.967 164.668, 499.994 147.895, 502.355 143.300 C 505.185 137.793, 504.703 137.329, 498 139.110 M 595.219 143.206 C 590.905 144.654, 586.270 150.044, 585.414 154.609 C 584.514 159.404, 587.777 166.284, 592.242 169.006 C 598.634 172.903, 608.604 170.438, 612.341 164.036 C 615.969 157.822, 614.065 148.054, 608.517 144.419 C 605.366 142.355, 599.383 141.809, 595.219 143.206 M 576.734 154.388 C 576.985 155.701, 576.632 157.839, 575.950 159.138 C 574.716 161.486, 574.721 161.489, 576.829 159.618 C 579.633 157.129, 580.581 153.983, 578.857 152.890 C 576.696 151.521, 576.246 151.838, 576.734 154.388 M 304 203.893 C 304 204.913, 306.427 206, 308.704 206 C 309.960 206, 310.015 205.723, 309 204.500 C 307.654 202.878, 304 202.434, 304 203.893 M 353 210.526 C 353 216.369, 362.563 227.180, 372.168 232.194 C 378.162 235.323, 379.061 235.500, 389 235.500 C 400.527 235.500, 404.229 234.250, 411.432 227.925 C 415.518 224.338, 420.303 215.166, 419.830 211.827 L 419.500 209.500 386.250 209.237 C 356.741 209.003, 353 209.148, 353 210.526 M 237 211.601 C 237 212.274, 242.763 232.219, 243.550 234.269 C 243.886 235.146, 240.885 237.031, 234.527 239.936 C 227.873 242.976, 225 244.807, 225 246.008 C 225 252.155, 244.232 345.549, 245.841 347.216 C 247.678 349.119, 264.170 343.437, 280.439 335.296 C 293.926 328.547, 318 312.399, 318 310.101 C 318 309.670, 315.612 308.784, 312.694 308.131 C 306.398 306.722, 296.789 302.318, 290.224 297.833 C 271.064 284.743, 254.168 258.574, 243.513 225.486 C 240.947 217.519, 238.432 211, 237.924 211 C 237.416 211, 237 211.270, 237 211.601 M 451.892 213.202 C 451.014 214.843, 451.005 215.502, 451.857 215.786 C 452.485 215.995, 453.014 217.367, 453.032 218.833 C 453.059 221.091, 453.252 221.270, 454.293 220 C 455.699 218.286, 460.326 214.948, 464 212.999 C 466.289 211.784, 466.384 211.813, 465.128 213.336 C 463.170 215.709, 465.325 215.404, 467.500 213 C 469.296 211.016, 469.247 211, 461.190 211 C 453.845 211, 452.958 211.210, 451.892 213.202 M 446.226 223.882 C 443.875 227.522, 441.175 231.619, 440.226 232.986 C 438.958 234.813, 439.760 234.425, 443.250 231.524 C 445.863 229.353, 448 226.786, 448 225.820 C 448 224.691, 448.522 224.263, 449.458 224.622 C 451.211 225.295, 452.613 220.887, 451.340 218.705 C 450.712 217.628, 449.422 218.934, 446.226 223.882 M 472.561 413.105 C 471.707 415.981, 469.835 423.771, 468.401 430.417 C 466.967 437.063, 464.801 447.083, 463.587 452.683 L 461.381 462.867 463.440 461.811 C 467.474 459.744, 509.972 432.491, 509.927 432 C 509.890 431.590, 487.832 416.670, 476.941 409.688 L 474.114 407.876 472.561 413.105 M 345.021 438.062 C 339.108 440.550, 335.792 445.975, 335.847 453.072 C 335.914 461.682, 341.404 468.338, 349.432 469.542 C 353.149 470.099, 354.703 469.750, 359.177 467.353 C 370.942 461.048, 372.180 447.450, 361.702 439.627 C 358.609 437.318, 348.944 436.411, 345.021 438.062 M 354.952 473.253 C 342.812 481.435, 346.641 497.657, 361.175 499.620 C 367.026 500.410, 374.304 497.247, 376.527 492.947 C 379.518 487.163, 377.653 478.363, 372.405 473.499 C 368.696 470.063, 359.871 469.938, 354.952 473.253 M 364.783 532.185 C 375.703 537.380, 377.024 539.041, 377.462 548.121 C 377.657 552.179, 378.281 559.775, 378.848 565 C 379.415 570.225, 380.195 591.600, 380.579 612.500 C 380.964 633.400, 381.655 651.513, 382.115 652.750 C 383.042 655.246, 387.304 655.894, 388.691 653.750 C 389.136 653.063, 389.579 631.800, 389.676 606.500 C 389.773 581.200, 389.863 558.522, 389.877 556.104 C 389.890 553.686, 389.236 550.424, 388.424 548.854 C 385.588 543.369, 389.972 538.712, 404.319 531.968 L 412.407 528.166 384.722 528.333 L 357.037 528.500 364.783 532.185 M 379.849 659.388 C 377.290 660.077, 374.058 661.387, 372.665 662.300 C 368.660 664.924, 364.814 670.647, 364.650 674.225 L 364.500 677.500 374.500 678.051 C 384.743 678.614, 401.105 676.980, 406.250 674.880 C 415.133 671.254, 400.173 657.790, 387.568 658.067 C 385.881 658.105, 382.407 658.699, 379.849 659.388 M 466 686.976 C 462.975 687.430, 447.900 687.900, 432.500 688.019 C 417.100 688.139, 403.150 688.618, 401.500 689.084 C 399.521 689.644, 401.394 689.776, 407 689.472 C 411.675 689.219, 436.425 688.996, 462 688.976 C 496.878 688.948, 508.017 688.659, 506.566 687.817 C 504.188 686.437, 473.784 685.807, 466 686.976 M 369.500 689 L 349.500 689.564 373.750 689.782 C 389.395 689.923, 398 689.645, 398 689 C 398 688.450, 396.087 688.098, 393.750 688.218 C 391.413 688.338, 380.500 688.690, 369.500 689 M 252.500 695.051 C 262.439 696.189, 330.002 698.707, 330.001 697.940 C 330 697.454, 295.221 695.845, 256.500 694.540 C 245.154 694.157, 244.936 694.185, 252.500 695.051" stroke="none" fill="#e94932" fill-rule="evenodd"/></svg>